<?xml version="1.0" encoding="utf-8"?>
<!--Generator: Adobe Illustrator 24.1.0 SVG Export Plug-In . SVG Version: 6.00 Build 0)-->
<svg version="1.1" id="图层_1" xmlns="http://www.w3.org/2000/svg" xmlns:xlink="http://www.w3.org/1999/xlink" x="0px" y="0px" viewBox="0 0 496.6 494.4" style="enable-background:new 0 0 496.6 494.4" xml:space="preserve">
    <style type="text/css">
        .st0{fill:#a04924}.st1{fill:#dab05d}.st2{fill:#91c2b1}.st3{fill:#7a502d}
    </style>
    <g>
        <g>
            <path class="st0" d="M247 53.2c15.5 0 30.5 1.8 44.9 5.3l7.5-38.6c-5.6-23.4-29.8-6.8-29.8-6.8c-22.5-30-42.8-0.2-42.8-0.2
			c-25.7-15.8-30.4 6.5-30.4 6.5l8.8 38.3C218.6 54.8 232.6 53.2 247 53.2z"/>
            <path class="st0" d="M379.5 105.9L408 73c6.8-23.1-22.4-20.7-22.4-20.7c-4.5-37.2-37-21.6-37-21.6C334.3 4.1 319 21.1 319 21.1
			l-12.8 41.4C333.9 71.4 358.8 86.4 379.5 105.9z"/>
            <path class="st0" d="M464.1 144.9c14.7-34.5-21.2-37.2-21.2-37.2c0.8-30.2-20.9-23.1-20.9-23.1l-33.2 30.8
			c19.1 20.7 33.7 45.6 42.3 73.2l42.1-14.5C490.6 157.4 464.1 144.9 464.1 144.9z"/>
            <path class="st0" d="M483.5 222.5c15.8-25.7-6.5-30.4-6.5-30.4l-42.3 9.7c3.3 14.2 5.1 29 5.1 44.2c0 14.2-1.5 27.9-4.4 41.2
			l41.2 8c23.4-5.6 6.8-29.8 6.8-29.8C513.2 242.8 483.5 222.5 483.5 222.5z"/>
            <path class="st0" d="M474 320.2l-43.5-15c-8.3 25.8-21.9 49.2-39.5 69l-2.1 3.9l34.1 31.6c0 0 21.7 7.1 20.9-23.1
			c0 0 35.9-2.7 21.2-37.2C465 349.3 491.5 336.8 474 320.2z"/>
            <path class="st0" d="M378.9 386.5c-20.5 19.2-45.1 34-72.4 42.8l13.5 43.8c0 0 15.3 17 29.6-9.6c0 0 32.5 15.6 37-21.6
			c0 0 29.2 2.4 22.4-20.7L378.9 386.5z"/>
            <path class="st0" d="M247 438.7c-13.9 0-27.5-1.5-40.6-4.3l-9.2 40.3c0 0 4.7 22.3 30.4 6.5c0 0 20.3 29.8 42.8-0.2
			c0 0 24.1 16.7 29.8-6.8l-7.9-41C277.8 436.8 262.6 438.7 247 438.7z"/>
            <path class="st0" d="M118.6 389.7l-28.1 32.4c-6.8 23.1 22.4 20.7 22.4 20.7c4.5 37.2 37 21.6 37 21.6
			c14.4 26.5 29.6 9.6 29.6 9.6l13.3-43.1C165 422.8 139.7 408.5 118.6 389.7z"/>
            <path class="st0" d="M63.8 306l-41.1 14.2c-17.5 16.6 9 29.2 9 29.2C17.1 383.8 53 386.5 53 386.5c-0.8 30.2 20.9 23.1 20.9 23.1
			l33.4-31C87.8 358.2 72.8 333.4 63.8 306z"/>
            <path class="st0" d="M54.3 246c0-14.5 1.6-28.6 4.6-42.2l-39.1-9c0 0-22.3 4.7-6.5 30.4c0 0-29.8 20.3 0.2 42.8
			c0 0-16.7 24.1 6.8 29.8l39.1-7.6C56.1 276 54.3 261.2 54.3 246z"/>
            <path class="st0" d="M106.5 114.1L74.8 84.6c0 0-21.7-7.1-20.9 23.1c0 0-35.9 2.7-21.2 37.2c0 0-26.5 12.6-9 29.2l39.6 13.7
			C72.1 159.9 87 134.8 106.5 114.1z"/>
            <path class="st0" d="M116.1 104.5c20.9-19.4 46.2-34.2 74.2-42.8l-12.5-40.6c0 0-15.3-17-29.6 9.6c0 0-32.5-15.6-37 21.6
			c0 0-29.2-2.4-22.4 20.7L116.1 104.5z"/>
        </g>
        <g>
            <path class="st1" d="M214.6 56c10.6-1.8 21.4-2.7 32.5-2.7c12.4 0 24.5 1.2 36.3 3.4l4.7-27.1c0.5-5.7-3.5-9.7-3.5-9.7
			c-6.9-6.9-18.7 4.1-19.1 3.7c-0.3-0.3-2.4-13.2-16.7-13.2c-14.3 0-16 13-16 13c-1-0.8-5.6-7.9-14.7-5.9c-9.1 2-8 12-8 12L214.6 56
			z"/>
            <path class="st1" d="M373 100.1l20.4-24.5c3.3-4.8 1.8-10.1 1.8-10.1c-2.5-9.4-18.2-5.8-18.4-6.3c-0.1-0.5 4.5-12.6-7.9-19.8
			c-12.4-7.2-20.3 3.2-20.3 3.2c-0.4-1.2-0.9-9.6-9.7-12.5c-8.9-2.9-13 6.4-13 6.4l-10.8 29.1C336.5 73.7 356 85.4 373 100.1z"/>
            <path class="st1" d="M453 146.5c0.1-0.5 10.2-8.6 3.1-21s-19.2-7.3-19.2-7.3c0.2-1.3 4.1-8.8-2.2-15.7c-6.2-6.9-14.4-1-14.4-1
			l-25.3 20.9c14.3 17.1 25.6 36.6 33.4 57.9l30.8-11.4c5.2-2.5 6.6-7.9 6.6-7.9C468.3 151.7 452.9 146.9 453 146.5z"/>
            <path class="st1" d="M486.1 244.5c0-14.3-13-16-13-16c0.8-1 7.9-5.6 5.9-14.7c-2-9.1-12-8-12-8l-30.4 5.1c2.1 11.3 3.2 23 3.2 35
			c0 11.1-1 22-2.8 32.6l29.9 5.1c5.7 0.5 9.7-3.5 9.7-3.5c6.9-6.9-4.1-18.7-3.7-19.1C473.2 260.9 486.1 258.8 486.1 244.5z"/>
            <path class="st1" d="M466.7 333.1c0 0-1.4-5.4-6.6-7.9l-32.4-11.9c-7.8 21-19.3 40.3-33.5 57.1l27 22.3c0 0 8.2 5.9 14.4-1
			c6.2-6.9 2.4-14.4 2.2-15.7c0 0 12.1 5.1 19.2-7.3c7.2-12.4-3-20.6-3.1-21C453.8 347.3 469.2 342.5 466.7 333.1z"/>
            <path class="st1" d="M372.4 392.3c-16.8 14.4-36.1 26-57.2 34l11.7 31.4c0 0 4.1 9.2 13 6.4c8.9-2.9 9.3-11.3 9.7-12.5
			c0 0 7.9 10.4 20.3 3.2c12.4-7.2 7.7-19.3 7.9-19.8c0.1-0.5 15.8 3.1 18.4-6.3c0 0 1.4-5.4-1.8-10.1L372.4 392.3z"/>
            <path class="st1" d="M283.8 435.2c-11.9 2.3-24.2 3.5-36.8 3.5c-10.6 0-21-0.9-31.2-2.5l-4.8 28.6c0 0-1.1 10.1 8 12
			c9.1 2 13.7-5.1 14.7-5.9c0 0 1.7 13 16 13c14.3 0 16.3-12.9 16.7-13.2c0.3-0.3 12.2 10.6 19.1 3.7c0 0 3.9-3.9 3.5-9.7
			L283.8 435.2z"/>
            <path class="st1" d="M125.3 395.4l-20.1 24.1c-3.3 4.8-1.8 10.1-1.8 10.1c2.5 9.4 18.2 5.8 18.4 6.3c0.1 0.5-4.5 12.6 7.9 19.8
			c12.4 7.2 20.3-3.2 20.3-3.2c0.4 1.2 0.9 9.6 9.7 12.5c8.9 2.9 13-6.4 13-6.4l11.3-30.4C162.4 420.7 142.6 409.5 125.3 395.4z"/>
            <path class="st1" d="M66.7 314.2l-30 11.1c-5.2 2.5-6.6 7.9-6.6 7.9c-2.5 9.4 12.9 14.2 12.7 14.6c-0.1 0.5-10.2 8.6-3.1 21
			c7.2 12.4 19.2 7.3 19.2 7.3c-0.2 1.3-4.1 8.8 2.2 15.7c6.2 6.9 14.4 1 14.4 1l25.4-21C86.4 354.9 74.8 335.4 66.7 314.2z"/>
            <path class="st1" d="M54.3 246c0-11.2 1-22.1 2.8-32.8l-27.3-4.6c0 0-10.1-1.1-12 8c-2 9.1 5.1 13.7 5.9 14.7c0 0-13 1.7-13 16
			c0 14.3 12.9 16.3 13.2 16.7c0.3 0.3-10.6 12.2-3.7 19.1c0 0 3.9 3.9 9.7 3.5l27.8-4.8C55.4 270.1 54.3 258.2 54.3 246z"/>
            <path class="st1" d="M100.2 121.1l-23.7-19.6c0 0-8.2-5.9-14.4 1c-6.2 6.9-2.4 14.4-2.2 15.7c0 0-12.1-5.1-19.2 7.3s3 20.6 3.1 21
			c0.1 0.5-15.3 5.2-12.7 14.6c0 0 1.4 5.4 6.6 7.9l28.4 10.5C74 157.9 85.6 138.2 100.2 121.1z"/>
            <path class="st1" d="M122.6 98.7c17.2-14.6 37-26.2 58.7-34l-10.5-28.2c0 0-4.1-9.2-13-6.4c-8.9 2.9-9.3 11.3-9.7 12.5
			c0 0-7.9-10.4-20.3-3.2c-12.4 7.2-7.7 19.3-7.9 19.8c-0.1 0.5-15.8-3.1-18.4 6.3c0 0-1.4 5.4 1.8 10.1L122.6 98.7z"/>
        </g>
        <g>
            <path class="st2" d="M247 53.2c6.8 0 13.5 0.4 20.2 1V34.8c-5.4-14.9-17.7-0.8-17.7-0.8c-13.8-14.4-18.3 0.9-18.3 0.9v19.1
			C236.4 53.5 241.7 53.2 247 53.2z"/>
            <g>
                <path class="st2" d="M360.8 90.4l11.9-20.7c2.8-15.6-14.9-9.6-14.9-9.6c-4.7-19.4-16.3-8.4-16.3-8.4l-11.6 20.1
				C340.8 77.1 351.2 83.3 360.8 90.4z"/>
                <path class="st2" d="M436.1 137.8c5.6-19.2-9.9-15.4-9.9-15.4l-21.6 12.5c6.9 9.8 12.9 20.2 17.9 31.2l21.7-12.5
				C454.4 141.4 436.1 137.8 436.1 137.8z"/>
                <path class="st2" d="M462.5 245.3c14.4-13.8-0.9-18.3-0.9-18.3h-22.8c0.6 6.3 0.9 12.6 0.9 19c0 5.7-0.3 11.4-0.8 17h22.7
				C476.6 257.5 462.5 245.3 462.5 245.3z"/>
                <path class="st2" d="M445.1 340.6l-23.3-13.4c-5 10.8-11 21-17.8 30.6l-0.3 0.5l23.3 13.5c0 0 15.5 3.8 9.9-15.4
				C437 356.4 455.3 352.8 445.1 340.6z"/>
                <path class="st2" d="M360.5 401.7c-9.7 7.1-20 13.2-31 18.4l12.9 22.3c0 0 11.6 11 16.3-8.4c0 0 17.7 6.1 14.9-9.6L360.5 401.7z"/>
                <path class="st2" d="M247 438.7c-5 0-10-0.2-14.9-0.6v21.3c0 0 4.5 15.3 18.3 0.9c0 0 12.3 14.1 17.7-0.8v-21.9
				C261.2 438.3 254.1 438.7 247 438.7z"/>
                <path class="st2" d="M137.7 404.7l-11.9 20.6c-2.8 15.6 14.9 9.6 14.9 9.6c4.7 19.4 16.3 8.4 16.3 8.4l12.1-21
				C158.1 417.4 147.6 411.5 137.7 404.7z"/>
                <path class="st2" d="M72.8 328.4l-21.1 12.2c-10.2 12.2 8.1 15.7 8.1 15.7c-5.6 19.2 9.9 15.4 9.9 15.4l21.5-12.4
				C84.2 349.7 78 339.4 72.8 328.4z"/>
                <path class="st2" d="M54.3 246c0-5.5 0.2-10.9 0.7-16.3H35.1c0 0-15.3 4.5-0.9 18.3c0 0-14.1 12.3 0.8 17.7h20.2
				C54.6 259.2 54.3 252.6 54.3 246z"/>
                <path class="st2" d="M90.3 133.8l-19.7-11.4c0 0-15.5-3.8-9.9 15.4c0 0-18.3 3.6-8.1 15.7l19.6 11.3
				C77.2 153.9 83.3 143.5 90.3 133.8z"/>
                <path class="st2" d="M135.1 89c9.7-7 20.2-13 31.1-18.1l-11-19.1c0 0-11.6-11-16.3 8.4c0 0-17.7-6.1-14.9 9.6L135.1 89z"/>
            </g>
        </g>
        <g>
            <g>
                <path class="st3" d="M200.2 59L186.5 8l-2.8 0.8l13.7 51C198.3 59.4 199.3 59.2 200.2 59z"/>
                <path class="st3" d="M297.5 432l14.6 54.4l2.8-0.8l-14.6-54.4C299.4 431.5 298.4 431.7 297.5 432z"/>
            </g>
            <g>
                <path class="st3" d="M300.9 59.6l13.6-51l-2.8-0.7l-13.6 51C299 59.1 300 59.4 300.9 59.6z"/>
                <path class="st3" d="M198.6 431.3l-14.5 54.4l2.8 0.7l14.5-54.4C200.5 431.8 199.6 431.6 198.6 431.3z"/>
            </g>
            <g>
                <path class="st3" d="M387.7 110.5l37.3-37.4l-2-2l-37.3 37.4C386.4 109.2 387.1 109.8 387.7 110.5z"/>
                <path class="st3" d="M113.3 381.3l-39.8 39.8l2 2l39.8-39.9C114.7 382.7 114 382 113.3 381.3z"/>
            </g>
            <g>
                <path class="st3" d="M437.5 198.1l51-13.7l-0.7-2.8l-51 13.7C437 196.2 437.3 197.1 437.5 198.1z"/>
                <path class="st3" d="M64.5 295.4L10.1 310l0.8 2.8l54.4-14.6C65 297.2 64.7 296.3 64.5 295.4z"/>
            </g>
            <g>
                <path class="st3" d="M436.8 298.7l51 13.6l0.7-2.8l-51-13.6C437.4 296.9 437.1 297.8 436.8 298.7z"/>
                <path class="st3" d="M65.1 196.5L10.7 182l-0.7 2.8l54.4 14.5C64.7 198.4 64.9 197.4 65.1 196.5z"/>
            </g>
            <g>
                <path class="st3" d="M385.9 385.6l37.4 37.3l2-2L388 383.6C387.3 384.3 386.6 384.9 385.9 385.6z"/>
                <path class="st3" d="M115.2 111.2L75.3 71.4l-2 2l39.9 39.8C113.8 112.6 114.5 111.9 115.2 111.2z"/>
            </g>
        </g>
    </g>
</svg>
