<?xml version="1.0" encoding="utf-8"?>
<!-- Generator: Adobe Illustrator 24.1.0  SVG Export Plug-In . SVG Version: 6.00 Build 0)  -->
<svg version="1.1" id="图层_1" xmlns="http://www.w3.org/2000/svg" xmlns:xlink="http://www.w3.org/1999/xlink" x="0px" y="0px"
	 viewBox="0 0 310.5 310.3" style="enable-background:new 0 0 310.5 310.3;" xml:space="preserve">
<style type="text/css">
	.st0{fill:#A55129;}
	.st1{fill:#DAB05D;}
</style>
<path class="st0" d="M287.8 235.8c0 0-2.4-16.4-1.6-29.1c0.8-12.7 2.2-24.7-8.3-38.1c0 0-5.3-5.7-15.2-7.4c-6.4-1.1-16.6-3.1-27-4.3
	c10.5-0.7 20.8-2.2 27.3-3c9.9-1.2 15.5-6.7 15.5-6.7c11.1-12.9 10.2-24.9 10-37.6c-0.2-12.7 2.9-29 2.9-29l-0.5 0.2l0.4-0.3
	c0 0-15.4-6.1-26-13.1c-10.6-7-20.3-14.2-37.1-11.8c0 0-7.6 1.8-14 9.5c-4.2 5.1-11.2 13.2-17.5 21.8c4.8-9.5 8.7-19.4 11.3-25.5
	c3.9-9.2 2-16.8 2-16.8c-5.6-16-16.4-21.3-27.5-27.6C171.6 10.9 159 0 159 0l-0.1 0.5L158.9 0c0 0-13 10.3-24.4 15.9
	c-11.4 5.7-22.4 10.4-28.8 26.2c0 0-2.3 7.4 1.2 16.8c2.3 6.3 5.8 16.3 10.1 26.1c-5.9-8.9-12.6-17.3-16.6-22.6
	c-6-8-13.5-10.1-13.5-10.1C70.1 49.2 60.1 56 49.2 62.5c-10.9 6.5-26.6 12-26.6 12l0.4 0.4l-0.5-0.2c0 0 2.4 16.4 1.7 29.1
	c-0.7 12.7-2.1 24.7 8.4 38c0 0 5.3 5.7 15.2 7.4c6.6 1.1 17 3.1 27.6 4.2c-10.6 0.7-21.1 2.2-27.8 3c-9.9 1.2-15.5 6.7-15.5 6.7
	C21 175.8 21.8 187.9 22 200.5c0.2 12.7-3 29-3 29l0.5-0.2l-0.4 0.3c0 0 15.4 6.2 26 13.2s20.3 14.2 37.1 11.9c0 0 7.6-1.7 14-9.4
	c4.2-5.1 11.1-13 17.3-21.5c-4.7 9.5-8.5 19.2-11.1 25.3c-3.9 9.2-2 16.8-2 16.8c5.6 16 16.5 21.3 27.6 27.5
	c11.1 6.2 23.6 17 23.6 17l0.1-0.5l0.1 0.5c0 0 13-10.3 24.4-16c11.3-5.7 22.4-10.5 28.8-26.3c0 0 2.3-7.5-1.2-16.8
	c-2.3-6.2-5.8-16.3-10.1-26c5.9 8.9 12.4 17.2 16.5 22.5c6 8 13.5 10.1 13.5 10.1c16.7 3.2 26.7-3.6 37.6-10.1
	c10.9-6.5 26.6-11.9 26.6-11.9l-0.4-0.4L287.8 235.8z M216.1 156.4c0.2 0.1 0.3 0.1 0.5 0.2c-0.2 0.1-0.4 0.1-0.5 0.2
	C216.1 156.6 216.1 156.5 216.1 156.4z"/>
<path class="st1" d="M310.5 155.1c0 0-10.6-12.8-16.5-24c-5.9-11.2-10.9-22.2-26.8-28.2c0 0-7.5-2.1-16.8 1.6
	c-6.1 2.4-15.8 6-25.3 10.4c8.6-6 16.6-12.7 21.7-16.7c7.8-6.2 9.8-13.8 9.8-13.8c2.7-16.8-4.3-26.6-11-37.4
	C238.8 36.3 233 20.7 233 20.7l-0.3 0.4l0.2-0.5c0 0-16.4 2.8-29 2.3c-12.7-0.4-24.7-1.6-37.8 9.2c0 0-5.6 5.5-7 15.4
	c-1 6.6-2.7 17.1-3.6 27.7c-0.9-10.6-2.6-21.1-3.6-27.7c-1.4-9.9-7-15.4-7-15.4c-13.1-10.8-25.1-9.7-37.8-9.2
	c-12.7 0.4-29-2.3-29-2.3l0.2 0.5l-0.3-0.4c0 0-5.8 15.5-12.6 26.3c-6.8 10.7-13.8 20.6-11 37.4c0 0 1.9 7.5 9.8 13.8
	c5.2 4.1 13.4 10.9 22.2 17.1c-9.7-4.5-19.7-8.3-25.9-10.7c-9.3-3.7-16.8-1.6-16.8-1.6c-15.9 6-20.9 17-26.8 28.2
	c-5.9 11.2-16.5 24-16.5 24l0.6 0.1L0 155.3c0 0 10.6 12.8 16.5 24c6 11.2 11 22.2 26.9 28.1c0 0 7.5 2.1 16.8-1.6
	c6.2-2.5 16.1-6.2 25.8-10.7c-8.8 6.1-16.9 12.8-22.2 17c-7.9 6.2-9.8 13.7-9.8 13.7c-2.8 16.8 4.2 26.6 10.9 37.4
	c6.7 10.8 12.5 26.3 12.5 26.3l0.3-0.4l-0.2 0.5c0 0 16.4-2.7 29-2.3c12.7 0.5 24.7 1.6 37.9-9.1c0 0 5.6-5.4 7-15.3
	c1-6.5 2.7-16.8 3.7-27.4c0.9 10.5 2.7 20.9 3.7 27.4c1.5 9.9 7 15.3 7 15.3c13.2 10.8 25.2 9.6 37.9 9.1c12.7-0.5 29 2.3 29 2.3
	l-0.2-0.5l0.3 0.4c0 0 5.8-15.6 12.5-26.3c6.7-10.8 13.7-20.6 10.9-37.4c0 0-1.9-7.5-9.8-13.7c-5.2-4.1-13.4-10.9-22.2-17
	c9.7 4.5 19.6 8.3 25.8 10.7c9.3 3.7 16.8 1.6 16.8 1.6c15.9-6 21-16.9 26.9-28.1c6-11.2 16.5-24 16.5-24l-0.5-0.1L310.5 155.1z
	 M207.9 124.5c0.2 0 0.4-0.1 0.6-0.1c-0.1 0.1-0.2 0.3-0.4 0.4C208 124.8 207.9 124.6 207.9 124.5z"/>
</svg>
