<?xml version="1.0" encoding="utf-8"?>
<!-- Generator: Adobe Illustrator 24.1.0  SVG Export Plug-In . SVG Version: 6.00 Build 0)  -->
<svg version="1.1" id="图层_1" xmlns="http://www.w3.org/2000/svg" xmlns:xlink="http://www.w3.org/1999/xlink" x="0px" y="0px"
	 viewBox="0 0 130.6 130.6" style="enable-background:new 0 0 130.6 130.6;" xml:space="preserve">
<style type="text/css">
	.st0{fill:#FFFFFF;}
	.st1{fill:#7A502D;}
	.st2{fill:#A55129;}
</style>
<ellipse transform="matrix(7.088910e-02 -0.9975 0.9975 7.088910e-02 -4.4656 125.8278)" class="st0" cx="65.3" cy="65.3" rx="65.3" ry="65.3"/>
<path class="st1" d="M65.3 6.7C32.9 6.7 6.6 33 6.6 65.4s26.3 58.7 58.7 58.7s58.7-26.3 58.7-58.7S97.8 6.7 65.3 6.7z M65.3 122.7
	C33.7 122.7 8 97.1 8 65.4S33.7 8.1 65.3 8.1s57.3 25.7 57.3 57.3S97 122.7 65.3 122.7z"/>
<path class="st1" d="M65.3 0C29.2 0 0 29.2 0 65.3s29.2 65.3 65.3 65.3c36.1 0 65.3-29.2 65.3-65.3S101.4 0 65.3 0z M65.3 125.9
	c-33.5 0-60.6-27.1-60.6-60.6c0-33.5 27.1-60.6 60.6-60.6c33.5 0 60.6 27.1 60.6 60.6C125.9 98.8 98.8 125.9 65.3 125.9z"/>
<g>
	<g>
		<path class="st2" d="M58.1 94.8c0 0 0.8-1.4 1.7-0.2c0 0 0.6 2.1 5.8 2.1c0 0 3.1 0.1 3.9 3.5c0 0-0.3 4.9 2.7 6.5
			c0 0 0.7 0.5 5.4 0.4c0 0 2.1 0.4 2.1 2.3c0 0-0.5 0.6-1.5 0.9c-1 0.2-4.6 1.1-7.5-0.3c-2.9-1.4-5-3.4-5.8-4.3
			c0 0-1.3-0.8-1.4 1.6c0 0-0.1 1 0.9 2c0 0 1.2 1.2 2.8 1.6c1.6 0.4 4 1.3 5 2.9c1 1.6 0.8 2 0.6 2.3c-0.2 0.3-1 0.4-1.3-0.1
			c-0.3-0.5-1.5-1.3-2-1.3c0 0-5.3-0.6-7 0.1c0 0-4.6 0.5-6.6-4.3c0 0-0.3-1.1-0.3-1.9c0-0.8-1.3-0.9-1.7-0.7
			c0 0-16.7 3.2-21.4-13.5c0 0-0.2-1.2-1-1.8c0 0-5-1.8-6.2-11.8c0 0-0.5-4.5-2.8-5.6c0 0-5.5-4.2-5.6-8.3c0 0-0.3-2.9 1.8-1.4
			c0 0 0.4 0.7 0.5 1.2c0.1 0.5 2.6 4.3 5.1 5.7c0 0 1.5 0.7 2.8 0.7c1.3 0 2.5 0.7 2.7 0.9c0.2 0.1 1.1 0.2 1.4-0.3
			c0.3-0.5 3-2 3.6-1c0 0 0.3 0.4-0.3 1.6c0 0-0.3 1.1 0.1 1.6c0.5 0.4 0.9 0.4 1.4 0.5c0.4 0.1 4.2 0.6 8.3 10.1
			c0 0 2.5 7.8 7.8 8.9C57.5 96.6 58.1 94.8 58.1 94.8z"/>
		<path class="st2" d="M43.8 58c0 0 3.6 15 16.5 27.4c0 0 0.7 0.6 0.2 1.4c0 0-0.5 0.4-0.9 1.3c0 0-1.5 0.5-3-0.8
			c-1.5-1.4-6-4.4-7.8-12c-1.8-7.6-7.1-12.2-8-12c0 0-1.9-0.4-2.3 0.4c-0.4 0.9 0.5 1.2 1.2 1.6c0.7 0.4 4.2 1.2 6.1 7.4
			c0 0 2.2 7.7 3.6 9.2c0 0 0.5 1.5-0.7 0.6c-1.2-0.9-3.9-6.6-4.2-8.2c-0.3-1.6-3.1-7-8.3-9.2c0 0-1.9-0.3-1.8 0.8
			c0.2 1.1 0.5 1.4 1.1 1.7c0.6 0.3 4.7 1.4 6.1 6c1.5 4.6 4.4 10.4 9.9 13.7c5.6 3.3 7.5 2.9 7.7 3.1c0 0 0.1 5 5.1 5.4
			c5 0.4 5.6-4.5 5.6-4.5h1.8c0 0 0.2-0.7-0.2-1.1c0 0-1.8-3.1-2.6-3.5c0 0-2-2-5.5-1.6c0 0-3.7-17.7-19-27.9
			C44.4 57 43.6 57.4 43.8 58z"/>
		<path class="st0" d="M65.1 89.7c0 0.3-0.3 0.6-0.6 0.6s-0.6-0.3-0.6-0.6c0-0.3 0.3-0.6 0.6-0.6S65.1 89.3 65.1 89.7z"/>
		<path class="st2" d="M14.8 70.2c0 0 1.6 2.9 2.7 3.5c0 0 5.5 2.3 6.7 8.1c1.2 5.9 2.1 6.1 2.5 6.5c0.4 0.5 0 1.2-0.5 0.9
			c0 0-2.2-1.8-2.6-3.9c-0.4-2-0.8-6.3-6.9-9.1c0 0-3.4-0.7-4.2-4.4c0 0-0.1-1.9 0.9-2C14.4 69.8 14.8 70.2 14.8 70.2z"/>
	</g>
	<g>
		<path class="st2" d="M93.6 55.9c0 0-1.6 0-1-1.3c0 0 1.5-1.6-1.1-6.1c0 0-1.5-2.8 1.1-5.1c0 0 4.4-2.1 4.2-5.6
			c0 0 0.1-0.9-2.3-4.9c0 0-0.7-2 1-2.9c0 0 0.8 0.1 1.5 0.8c0.7 0.8 3.3 3.5 3.5 6.7c0.2 3.2-0.5 6-0.8 7.1c0 0-0.1 1.5 2.1 0.4
			c0 0 0.9-0.4 1.3-1.8c0 0 0.4-1.6 0-3.2c-0.4-1.6-0.8-4.1 0.1-5.8c0.9-1.7 1.4-1.7 1.7-1.7c0.3 0 0.9 0.7 0.6 1.2
			c-0.3 0.5-0.3 1.9-0.1 2.3c0 0 2.2 4.9 3.6 6c0 0 2.7 3.7-0.4 7.9c0 0-0.8 0.8-1.5 1.2c-0.7 0.4-0.2 1.5 0.2 1.8
			c0 0 11.1 12.9-1 25.3c0 0-1 0.8-1 1.7c0 0 0.9 5.3-7.2 11.3c0 0-3.7 2.7-3.4 5.2c0 0-0.9 6.8-4.4 9c0 0-2.4 1.7-2.1-0.8
			c0 0 0.4-0.7 0.8-1c0.4-0.3 2.5-4.4 2.4-7.2c0 0-0.2-1.6-0.8-2.8c-0.7-1.2-0.6-2.5-0.6-2.8c0-0.3-0.4-1.1-1-1.1
			c-0.6 0-3.3-1.6-2.7-2.6c0 0 0.2-0.5 1.5-0.5c0 0 1.2-0.3 1.3-0.9c0.2-0.6-0.1-1-0.2-1.5c-0.1-0.5-1.6-3.9 4.6-12.3
			c0 0 5.5-6.1 3.9-11.2C95.5 55.5 93.6 55.9 93.6 55.9z"/>
		<path class="st2" d="M68.9 86.8c0 0 11.2-10.7 15.5-28c0 0 0.2-0.9 1.1-0.9c0 0 0.6 0.3 1.5 0.1c0 0 1.2 1 0.8 3
			c-0.4 2-0.8 7.4-6.5 12.8c-5.7 5.3-7 12.3-6.4 13c0 0 0.6 1.9 1.5 1.8c0.9-0.1 0.8-1 0.8-1.9c0-0.8-1-4.2 3.3-9
			c0 0 5.6-5.8 6.1-7.7c0 0 1.1-1.2 0.9 0.3c-0.2 1.5-3.7 6.7-5 7.7c-1.3 1-4.5 6.1-3.8 11.8c0 0 0.7 1.8 1.6 1.1
			c0.8-0.7 0.9-1.2 0.9-1.8c-0.1-0.7-1.1-4.7 2.1-8.3c3.2-3.6 6.9-9 6.9-15.5c0.1-6.5-1.3-8-1.2-8.2c0 0 4.3-2.6 2.1-7.1
			c-2.2-4.5-6.7-2.5-6.7-2.5L83.7 46c0 0-0.7 0.2-0.9 0.7c0 0-1.8 3.1-1.7 4c0 0-0.7 2.7 1.4 5.6c0 0-13.5 12-14.7 30.4
			C67.8 86.7 68.5 87.2 68.9 86.8z"/>
		<path class="st0" d="M85.7 52.5c0.3-0.2 0.7-0.1 0.8 0.2c0.2 0.3 0.1 0.7-0.2 0.8c-0.3 0.2-0.7 0.1-0.8-0.2
			C85.3 53 85.4 52.6 85.7 52.5z"/>
		<path class="st2" d="M94 105.8c0 0 1.7-2.8 1.6-4.1c0 0-0.8-5.9 3.7-9.8c4.5-4 4.2-4.8 4.4-5.5c0.2-0.6 1-0.6 1.1 0
			c0 0-0.5 2.8-2.1 4.2c-1.6 1.4-5 3.8-4.4 10.5c0 0 1.1 3.3-1.7 5.9c0 0-1.6 1-2.2 0.2C93.8 106.3 94 105.8 94 105.8z"/>
	</g>
	<g>
		<path class="st2" d="M42.6 43.9c0 0 0.8 1.4-0.7 1.5c0 0-2.1-0.5-4.7 4c0 0-1.7 2.7-5 1.6c0 0-4-2.7-7-0.9c0 0-0.8 0.4-3.1 4.4
			c0 0-1.4 1.6-3 0.6c0 0-0.3-0.7 0-1.7c0.3-1 1.4-4.6 4-6.3c2.7-1.8 5.4-2.6 6.6-2.9c0 0 1.4-0.7-0.7-2c0 0-0.8-0.6-2.2-0.3
			c0 0-1.6 0.5-2.8 1.6c-1.2 1.2-3.2 2.8-5 2.8c-1.9 0-2.1-0.4-2.3-0.6c-0.1-0.3 0.2-1.1 0.8-1.1c0.6 0 1.9-0.7 2.1-1.1
			c0 0 3.2-4.3 3.4-6.1c0 0 1.9-4.2 7-3.6c0 0 1.1 0.3 1.8 0.7c0.7 0.4 1.4-0.6 1.4-1.1c0 0 5.6-16.1 22.4-11.8c0 0 1.1 0.5 2 0
			c0 0 4.1-3.4 13.3 0.6c0 0 4.1 1.8 6.2 0.3c0 0 6.4-2.6 10-0.7c0 0 2.6 1.2 0.4 2.3c0 0-0.8 0-1.3-0.1c-0.5-0.2-5 0-7.5 1.6
			c0 0-1.3 1-2 2.1c-0.7 1.2-1.9 1.8-2.1 1.9c-0.2 0.1-0.8 0.9-0.5 1.4c0.3 0.5 0.3 3.6-0.9 3.6c0 0-0.5 0.1-1.2-1
			c0 0-0.8-0.9-1.4-0.7c-0.6 0.2-0.8 0.6-1.2 0.9c-0.3 0.3-2.6 3.3-12.9 2.2c0 0-8-1.7-11.6 2.2C41.3 42.5 42.6 43.9 42.6 43.9z"/>
		<path class="st2" d="M81.7 49.9c0 0-14.8-4.4-31.9 0.6c0 0-0.9 0.3-1.3-0.5c0 0 0-0.6-0.7-1.4c0 0 0.3-1.5 2.2-2.2
			c1.9-0.6 6.8-3 14.3-0.7c7.5 2.3 14.1-0.1 14.4-1c0 0 1.3-1.5 0.8-2.2c-0.6-0.8-1.3-0.1-2 0.2c-0.7 0.4-3.2 3-9.5 1.6
			c0 0-7.8-1.9-9.7-1.5c0 0-1.6-0.3-0.2-0.9c1.4-0.6 7.7-0.1 9.2 0.5c1.5 0.6 7.6 0.8 12.1-2.6c0 0 1.2-1.5 0.2-1.9
			c-1-0.4-1.5-0.2-2 0.1c-0.6 0.4-3.5 3.3-8.2 2.3c-4.7-1-11.2-1.4-16.8 1.7c-5.6 3.2-6.3 5.1-6.5 5.1c0 0-4.4-2.4-7.2 1.7
			c-2.8 4.1 1.2 7.1 1.2 7.1L39 57.5c0 0 0.5 0.5 1.1 0.4c0 0 3.6 0 4.3-0.5c0 0 2.7-0.8 4.1-4c0 0 17.2 5.6 33.6-2.5
			C82.2 50.9 82.3 50.1 81.7 49.9z"/>
		<path class="st0" d="M43.6 52.5c-0.3-0.2-0.4-0.5-0.2-0.8c0.2-0.3 0.5-0.4 0.8-0.2c0.3 0.2 0.4 0.5 0.2 0.8
			C44.3 52.6 43.9 52.7 43.6 52.5z"/>
		<path class="st2" d="M85.6 18.7c0 0-3.3-0.1-4.4 0.6c0 0-4.7 3.6-10.4 1.7c-5.7-1.9-6.3-1.2-6.9-1.1c-0.6 0.1-1-0.6-0.5-0.9
			c0 0 2.7-1 4.6-0.3c2 0.7 5.8 2.4 11.3-1.4c0 0 2.3-2.6 5.9-1.4c0 0 1.7 0.9 1.3 1.8C86.1 18.6 85.6 18.7 85.6 18.7z"/>
	</g>
</g>
</svg>
