<?xml version="1.0" encoding="utf-8"?>
<!-- Generator: Adobe Illustrator 24.1.0, SVG Export Plug-In . SVG Version: 6.00 Build 0)  -->
<svg version="1.1" id="图层_1" xmlns="http://www.w3.org/2000/svg" xmlns:xlink="http://www.w3.org/1999/xlink" x="0px" y="0px"
	 viewBox="0 0 108.4 110.9" style="enable-background:new 0 0 108.4 110.9;" xml:space="preserve">
<style type="text/css">
	.st0{fill:#E3C285;}
	.st1{fill:#AF6331;}
</style>
<path class="st0" d="M108.4,17.8c0-6.6-2-12.7-5.4-17.8H49.5H0v48.6v61.9c1.7,0.3,3.5,0.4,5.3,0.4c12.4,0,23.1-7.2,28.2-17.7
	c4.4,1.9,9.2,2.9,14.3,2.9c20,0,36.1-16.2,36.1-36.1c0-3.7-0.6-7.3-1.6-10.7C97.2,46.5,108.4,33.5,108.4,17.8z"/>
<path class="st1" d="M54,2.7H8.8H1.9v14.2v33.6c0.8,0.1,1.6,0.2,2.5,0.2c9.4,0,17-7.6,17-17c0-1.2-0.1-2.3-0.3-3.4
	c3.1,1.5,6.6,2.4,10.3,2.4c13,0,23.5-10.5,23.5-23.5C54.9,6.9,54.6,4.8,54,2.7z"/>
</svg>
